<svg viewBox="0 0 1.29 1" xmlns="http://www.w3.org/2000/svg"><path d="M.519 0a.565.565 0 0 1-.033.003l-.13.01a.083.083 0 0 1-.01.001l-.02.002A1.176 1.176 0 0 0 .26.02a.093.093 0 0 0-.033.006A.06.06 0 0 0 .2.042.933.933 0 0 0 .123.13a.046.046 0 0 0-.007.01.057.057 0 0 0-.024.036L.091.177a.206.206 0 0 1-.012.02.05.05 0 0 1-.005.01.056.056 0 0 0-.003.006.083.083 0 0 0-.007.013.017.017 0 0 1-.002.005 3.365 3.365 0 0 1-.034.086.135.135 0 0 1-.01.035.033.033 0 0 1-.002.01.677.677 0 0 0 .023.367l.003.005a.265.265 0 0 0 .017.041.051.051 0 0 1 .003.007l.006.011a.414.414 0 0 0 .02.036l.004.008.01.015.005.01.01.014a.086.086 0 0 0 .006.007.01.01 0 0 1 .002.003l.001.001A.075.075 0 0 0 .135.9.1.1 0 0 1 .14.908L.145.91l.003.004.01.012.005.006a.613.613 0 0 0 .065.061l.004.002a.091.091 0 0 0 .036.003.034.034 0 0 1 .01-.001c.007 0 .014 0 .021-.002h.012L.324.993h.03A.484.484 0 0 0 .404.99.412.412 0 0 0 .461.986L.469.985.48.984A.092.092 0 0 0 .496.98.033.033 0 0 0 .518.96s0-.003.002-.004C.523.95.518.932.51.925A.032.032 0 0 1 .508.92.054.054 0 0 0 .505.915V.913c.001 0 .001 0 0 0L.503.91H.502L.5.907A.028.028 0 0 0 .498.902C.493.892.488.882.492.888c.01.009.022.016.035.02a.148.148 0 0 1 .019.007l.003.002h.004L.556.92H.56l.005.002.005.001.004.002H.58l.003.001h.003l.001.001a.04.04 0 0 1 .009.002H.6l.01.002a.18.18 0 0 0 .033.002c.018 0 .02 0 .033-.002A.823.823 0 0 1 .718.922a.018.018 0 0 1 .004 0L.727.92H.73L.733.917h.003L.738.916a.01.01 0 0 1 .004 0L.746.914A.102.102 0 0 1 .76.91.104.104 0 0 0 .797.886v.002a.132.132 0 0 1-.015.025L.78.92a.072.072 0 0 0-.013.028C.766.96.778.979.79.98a.03.03 0 0 0 .016.004l.012.001a.92.92 0 0 0 .115.008.168.168 0 0 0 .033.001l.011.001.011.001.022.002a.146.146 0 0 0 .037 0 .012.012 0 0 1 .003 0 .05.05 0 0 0 .012-.005.213.213 0 0 0 .029-.026L1.098.96l.006-.006a.042.042 0 0 0 .007-.007L1.119.94a.017.017 0 0 0 .003-.004l.003-.003.002-.003.002-.002.003-.003.002-.003.002-.002a.026.026 0 0 1 .006-.006L1.143.91h.002l.001-.003.001-.001.002-.002V.902l.005-.005.002-.002a.11.11 0 0 0 .008-.011l.001-.001.001-.002.001-.001.004-.006A.01.01 0 0 1 1.173.87l.003-.004a.01.01 0 0 0 .002-.003L1.18.862a.01.01 0 0 0 .003-.004l.001-.002.002-.003.002-.003.001-.002.002-.002a.035.035 0 0 0 .005-.009l.002-.002V.832L1.2.83l.001-.002.002-.001A.02.02 0 0 1 1.206.82V.819l.001-.002.001-.002V.814L1.21.811l.001-.002s0-.002.002-.003l.002-.004L1.217.8V.798l.001-.002.002-.004.002-.004V.787l.003-.004A.013.013 0 0 0 1.227.78l.001-.003V.775L1.23.773V.77l.002-.003V.765l.002-.002.001-.003.001-.002V.756l.002-.001c0-.002 0-.003.002-.005V.745l.002-.002V.74l.002-.003V.734l.002-.003V.729l.001-.001.001-.003L1.25.72l.001-.003.001-.003.001-.003.001-.004A.068.068 0 0 0 1.26.694L1.261.69c.001 0 .001 0 0 0V.686a.033.033 0 0 0 .003-.008l.001-.003V.674l.003-.01V.66h.002V.651L1.272.65l.001-.001V.645L1.274.64V.638L1.277.63A.167.167 0 0 0 1.28.604L1.284.58l.001-.017a.719.719 0 0 0-.001-.13V.432A.217.217 0 0 1 1.279.4a.093.093 0 0 0-.003-.013.072.072 0 0 1-.001-.01c0-.003 0-.004-.002-.004V.371A.02.02 0 0 0 1.27.364V.36a.025.025 0 0 1-.002-.01c-.001 0-.002-.003-.002-.007L1.265.337 1.264.331 1.263.328 1.262.326 1.261.324V.32L1.26.318 1.258.314V.313L1.257.31V.309L1.254.306V.303a.032.032 0 0 1-.003-.01L1.25.29V.286L1.247.284S1.245.28 1.246.278a.04.04 0 0 1-.004-.009.052.052 0 0 0-.003-.006.009.009 0 0 1 0-.004L1.236.257V.253A.009.009 0 0 1 1.233.25a.028.028 0 0 0-.005-.01V.236L1.227.234A.008.008 0 0 0 1.225.23L1.223.228V.226L1.22.224V.222L1.219.219 1.218.216 1.217.214A.011.011 0 0 1 1.215.21a.015.015 0 0 0-.003-.004V.204H1.21L1.209.2 1.208.197 1.206.195 1.205.192 1.204.19s0-.002-.002-.003L1.2.184V.182a.014.014 0 0 1-.002-.004h-.001V.175L1.192.171V.169L1.19.167 1.187.164V.163a.02.02 0 0 0-.004-.006L1.182.155 1.18.154V.152h-.002V.148L1.176.146 1.173.143V.142a.03.03 0 0 1-.006-.007V.133h-.002V.13A.016.016 0 0 1 1.16.126a.048.048 0 0 0-.008-.01V.113L1.15.11 1.148.108a.037.037 0 0 1-.004-.005.064.064 0 0 0-.007-.007.009.009 0 0 0-.002-.003L1.134.09 1.128.085A.105.105 0 0 0 1.072.03.037.037 0 0 0 1.06.026.093.093 0 0 0 1.027.02 31.75 31.75 0 0 0 .747 0C.724.001.715.005.711.018.706.032.707.028.706.06a.436.436 0 0 1-.024.15L.678.22a.259.259 0 0 1-.032.055L.644.277.64.275A.267.267 0 0 1 .593.164.449.449 0 0 1 .58.06C.58.03.58.028.576.02V.016L.574.014.573.01C.57.004.558 0 .54 0H.52zm-.01.033h.004a.021.021 0 0 1 .025.018v.003l.001.02a.503.503 0 0 0 .024.154l.005.01.005.012C.59.284.618.315.637.319h.016a.108.108 0 0 0 .02-.013.148.148 0 0 0 .032-.04.334.334 0 0 0 .043-.18v-.01a.04.04 0 0 1 0-.01v-.01l.003-.01C.75.044.762.035.766.034h.01L.778.032H.78L.784.031H.79l.004.001.015.001.016.002H.84A.158.158 0 0 0 .867.04H.87L.9.043A1.015 1.015 0 0 1 .99.05h.017a.03.03 0 0 1 .009.002h.012c.011 0 .023.008.046.03a.309.309 0 0 1 .023.026L1.1.113a.66.66 0 0 1 .08.119l.001.001.002.002.01.02a.039.039 0 0 0 .005.01L1.2.27l.004.01.01.027a.182.182 0 0 0 .005.011.502.502 0 0 0 .014.047l.002.013c.006.028.01.057.012.086l.001.017a.46.46 0 0 1-.01.136.692.692 0 0 1-.08.207l-.039.055a.487.487 0 0 1-.086.088.054.054 0 0 1-.017.003A1.289 1.289 0 0 0 .98.967L.942.964A1.406 1.406 0 0 0 .859.96C.825.955.819.952.81.942A.025.025 0 0 1 .806.933C.804.93.808.92.818.902A.166.166 0 0 0 .83.872L.833.87V.867A.184.184 0 0 0 .844.84.192.192 0 0 1 .85.821.036.036 0 0 0 .853.808V.805H.851a.313.313 0 0 1-.136.091A.229.229 0 0 1 .56.893.322.322 0 0 1 .45.818C.438.805.436.803.435.808c.002.01.004.02.008.028v.005a.407.407 0 0 0 .03.068l.004.007c.005.011.005.016 0 .024C.473.95.464.954.445.957a.594.594 0 0 1-.058.005 1.245 1.245 0 0 0-.112.007.035.035 0 0 1-.028-.007.564.564 0 0 1-.12-.144.675.675 0 0 1-.083-.246L.04.552V.535A.45.45 0 0 1 .042.43L.045.413a.371.371 0 0 1 .006-.03.222.222 0 0 1 .012-.049.06.06 0 0 1 .004-.012.171.171 0 0 0 .007-.018L.077.295a.377.377 0 0 1 .03-.068L.116.213A.18.18 0 0 1 .13.188L.135.179A.37.37 0 0 1 .182.117.517.517 0 0 0 .194.103a.22.22 0 0 1 .05-.046A.046.046 0 0 1 .26.052h.019A.042.042 0 0 1 .29.05a.02.02 0 0 0 .005 0h.004L.302.048h.002L.32.047h.016A.133.133 0 0 0 .36.043h.01L.372.042h.007A.233.233 0 0 1 .4.04h.018L.421.039h.004c.007 0 .015 0 .023-.002h.007L.459.035a.036.036 0 0 1 .01 0L.473.034h.008L.484.033H.49L.5.032h.003l.005.001zm.708.366c-.009.003-.013.009-.013.017 0 .023.034.025.035.002.001-.012-.011-.022-.022-.019zm-.032.033c-.026.003-.04.012-.046.03a.13.13 0 0 0-.003.03l-.001.01a.121.121 0 0 0-.003.025v.004L1.13.535V.54a.01.01 0 0 1-.001.004l-.001.003V.55l-.001.002v.003l-.001.004a.02.02 0 0 1-.002.007v.003l-.002.004v.004L1.121.58 1.12.584A.11.11 0 0 1 1.117.6v.002a.041.041 0 0 0-.002.007.056.056 0 0 1-.002.007.049.049 0 0 0-.003.007.092.092 0 0 1-.002.007.047.047 0 0 0-.002.006.072.072 0 0 1-.005.013.052.052 0 0 0-.002.005.058.058 0 0 1-.002.007.061.061 0 0 0-.004.01.013.013 0 0 1-.002.003L1.09.675c0 .001 0 .003-.002.005a1.035 1.035 0 0 0-.022.045.116.116 0 0 0-.01.016l-.002.003-.001.002-.002.002a.145.145 0 0 1-.015.024.073.073 0 0 0-.009.011.02.02 0 0 1-.003.004.027.027 0 0 0-.003.005.027.027 0 0 1-.006.006.114.114 0 0 1-.013.015A.015.015 0 0 0 1 .819a.007.007 0 0 0-.003.003.068.068 0 0 1-.006.007L.984.834a.364.364 0 0 1-.016.015L.963.854v.001L.958.86a.056.056 0 0 0-.004.052.05.05 0 0 0 .035.03c.012.003.024 0 .032-.007a.036.036 0 0 1 .005-.003L1.028.93 1.03.928l.007-.006.002-.001a.604.604 0 0 0 .13-.168.068.068 0 0 1 .004-.007l.001-.004a.156.156 0 0 0 .022-.048V.692l.002-.004L1.2.685 1.201.68l.001-.004h.001V.673a.05.05 0 0 0 .003-.008V.663L1.21.657c0-.003 0-.007.002-.01l.001-.003.001-.005.001-.004A.11.11 0 0 0 1.22.618V.616a.01.01 0 0 1 0-.004l.001-.005.002-.008a.382.382 0 0 0 .014-.135C1.231.445 1.205.43 1.184.432zm.017.006a.05.05 0 0 1 .015.007.04.04 0 0 1 .013.013l.002.003.001.002.001.004a.045.045 0 0 1 0 .018v.002L1.232.49a.01.01 0 0 1-.002.003l-.002.003a.027.027 0 0 1-.006.007s-.002 0-.003.002c-.007.007-.029.012-.04.008A.056.056 0 0 1 1.16.505a.038.038 0 0 1-.008-.007L1.15.493a.032.032 0 0 1 0-.036V.455s.01-.01.012-.01a.037.037 0 0 1 .012-.006.02.02 0 0 1 .006-.001l.004-.001.017.001zm-.02.021c-.023.006-.02.027.003.032l.007.001h.005c.005-.002.01-.004.013-.008.012-.013-.008-.03-.028-.025zm-.036.097c.003.001.004.002.014.021l.01.016.002-.001.019-.014c.019-.014.02-.014.023-.014.009 0 .013.01.007.017a.694.694 0 0 1-.036.027l.012.002c.011.002.014.003.016.007.003.006-.001.015-.009.015L1.128.617C1.121.613 1.122.602 1.13.599l.003-.002.01.002.008.002a.209.209 0 0 0-.009-.017c-.01-.016-.01-.018-.009-.021a.01.01 0 0 1 .014-.007zm-.004.1c.014.004.019.015.015.03-.005.022-.022.032-.028.019C1.127.7 1.127.698 1.132.693a.027.027 0 0 0 .007-.014V.675h-.002C1.132.673 1.13.674 1.123.677c-.01.006-.011.015-.006.026.005.012.01.015.024.015.02 0 .026-.01.02-.03-.003-.013.013-.02.019-.008a.07.07 0 0 1 .002.027c-.004.035-.057.043-.079.012C1.09.7 1.091.681 1.105.667c.013-.013.024-.016.037-.012zm-.059.093a.01.01 0 0 1 .006.006l.004.001h.004l.016.01.016.012a.01.01 0 0 1-.007.017.15.15 0 0 1-.037-.025L1.084.768h-.005c-.012 0-.017.007-.011.016.002.003.003.007.001.01v.003l.015.01c.018.013.019.013.02.016.004.01-.006.018-.015.012a1.447 1.447 0 0 1-.056-.038c-.006-.008.002-.02.01-.016h.002V.777a.03.03 0 0 1 .023-.028.033.033 0 0 1 .015 0zm-.065.086a.02.02 0 0 1 .006.002c.014.008.025.02.029.036V.89a.027.027 0 0 0-.001.004c-.004.016-.023.026-.04.022A.033.033 0 0 1 1 .913.07.07 0 0 1 .98.896.016.016 0 0 0 .978.893a.046.046 0 0 1-.007-.02V.86A.01.01 0 0 0 .974.858c0-.008.012-.02.019-.022a.05.05 0 0 1 .026 0zm-.017.02C.989.86.99.88 1.003.89l.004.003c.007.006.02.004.024-.002.008-.017-.013-.041-.03-.035z" fill="#7483AB"/></svg>